<svg data-v-423bf9ae="" xmlns="http://www.w3.org/2000/svg" viewBox="0 0 262.2461170848268 163" class="iconAbove"><!----><!----><!----><g data-v-423bf9ae="" id="44d620c7-e58b-4dfe-9b86-465023d2d6b0" fill="white" transform="matrix(6.117084980010986,0,0,6.117084980010986,-0.47789695858955383,91.24372863769531)"><path d="M0.08 3.56L0.08 1.92L5.25 1.92L5.25 3.17L5.25 3.17Q5.25 3.21 4.46 4.88L4.46 4.88L6.21 4.88L6.21 5.31L4.27 5.31L4.27 5.31Q4.25 5.31 3.75 6.36L3.75 6.36L3.75 6.36Q3.73 6.44 3.23 7.47L3.23 7.47L3.51 7.47L3.51 7.47Q2.99 8.63 2.92 8.71L2.92 8.71L2.08 8.71L2.08 9.09L2.75 9.09L2.30 10.08L4.09 10.08L4.09 10.59L5.71 10.59L5.71 11.70L5.71 11.70Q5.71 11.73 5.68 11.73L5.68 11.73L2.95 11.73L2.95 11.57L0.08 11.57L0.08 10.62L0.49 10.62L0.49 9.57L0.49 9.57Q0.61 9.27 1.48 7.47L1.48 7.47L1.20 7.47L1.20 7.45L3.07 3.56L0.08 3.56ZM4.44 4.88L3.53 4.88L3.53 5.31L4.22 5.31L4.22 5.31Q4.26 5.31 4.44 4.88L4.44 4.88ZM9.23 1.94L9.23 1.94L9.23 1.94Q11.21 1.94 11.80 3.05L11.80 3.05L11.80 3.05Q12.14 3.73 12.14 4.05L12.14 4.05L12.14 4.05Q12.28 4.54 12.28 6.28L12.28 6.28L12.28 6.56L11.34 6.56L11.34 6.74L12.28 6.74L12.28 6.56L13.36 6.56L13.36 6.74L12.29 6.74L12.29 6.74Q12.29 8.16 12.19 9.93L12.19 9.93L12.19 10.55L11.32 10.55L11.32 11.73L7.27 11.73L7.27 11.07L6.45 11.07L6.45 8.04L7.01 8.04L7.01 7.78L6.15 7.78L6.15 6.84L6.15 6.84Q6.15 3.81 6.66 3.06L6.66 3.06L6.66 3.06Q6.96 2.45 7.70 2.15L7.70 2.15L7.70 2.15Q8.36 1.94 9.23 1.94ZM8.12 8.31L8.12 8.31L8.12 8.51L8.41 8.51L8.41 9.94L9.57 9.94L9.57 9.81L10.44 9.81L10.44 7.39L10.28 7.39L10.28 7.39Q10.28 4.96 10.13 4.51L10.13 4.51L10.13 4.51Q9.90 3.64 9.28 3.64L9.28 3.64L9.13 3.64L9.13 3.64Q8.42 3.64 8.24 4.65L8.24 4.65L8.24 4.65Q8.12 5.04 8.12 8.31ZM15.67 1.93L15.67 1.93L16.87 1.93L16.87 6.00L16.37 6.00L16.37 6.17L16.87 6.17L16.87 8.67L16.43 8.67L16.43 8.85L17.15 8.85L17.15 11.73L15.98 11.73L15.98 11.60L14.97 11.60L14.97 10.73L15.13 10.73L15.13 8.85L14.97 8.85L14.97 7.51L15.38 7.51L15.38 7.26L14.97 7.26L14.97 4.40L14.97 4.40Q13.78 4.93 13.63 4.93L13.63 4.93L13.63 4.93Q13.22 3.76 13.10 3.40L13.10 3.40L13.12 3.40L13.12 3.40Q14.31 3.01 15.67 1.93ZM16.87 6.17L16.87 6.00L17.89 6.00L17.89 6.17L16.87 6.17ZM17.89 1.93L17.89 1.93L23.14 1.93L23.14 3.13L23.14 3.13Q23.14 3.17 22.81 3.83L22.81 3.83L22.81 3.83Q22.31 4.99 21.85 6.62L21.85 6.62L22.63 6.62L22.63 6.89L21.81 6.89L21.81 6.82L21.83 6.62L21.18 6.62L21.18 6.89L21.81 6.89L21.81 8.02L21.38 8.02L21.38 9.41L20.85 9.41L20.85 11.73L18.55 11.73L18.55 11.35L18.92 11.35L18.92 8.48L19.39 8.48L19.39 6.77L19.84 6.77L19.84 6.77Q20.40 5.24 21.18 3.66L21.18 3.66L21.18 3.66Q21.20 3.66 21.23 3.58L21.23 3.58L17.82 3.58L17.79 3.56L17.79 3.56Q17.80 3.53 17.80 3.51L17.80 3.51L17.80 3.51Q17.80 3.34 17.89 1.93ZM26.52 1.95L26.52 1.95L26.52 1.95Q28.32 1.95 28.79 3.12L28.79 3.12L28.79 3.12Q29.05 3.77 29.05 4.79L29.05 4.79L29.05 4.79Q29.05 6.53 27.40 8.15L27.40 8.15L28.51 8.15L28.51 8.26L27.34 8.26L27.37 8.15L26.71 8.15L26.71 8.26L27.34 8.26L27.34 8.83L26.46 8.83L26.46 9.34L26.81 9.34L26.81 10.05L29.16 10.05L29.16 11.57L26.81 11.57L26.81 11.73L23.77 11.73L23.77 10.18L24.34 10.18L24.34 8.51L24.88 8.51L24.88 7.20L25.27 7.20L25.27 7.05L26.19 7.05L26.19 7.05Q26.73 6.46 26.89 6.11L26.89 6.11L26.89 6.11Q27.24 5.54 27.24 4.80L27.24 4.80L27.24 4.80Q27.24 3.90 26.95 3.66L26.95 3.66L26.95 3.66Q26.75 3.55 26.54 3.55L26.54 3.55L26.35 3.55L26.35 3.55Q25.72 3.55 25.53 4.35L25.53 4.35L25.53 4.35Q25.43 4.79 25.43 5.18L25.43 5.18L25.43 5.18Q25.42 5.18 25.42 5.20L25.42 5.20L25.42 5.20Q23.88 5.07 23.77 5.07L23.77 5.07L23.77 5.07Q23.77 3.95 24.14 3.07L24.14 3.07L24.14 3.07Q24.31 2.74 24.70 2.40L24.70 2.40L24.70 2.40Q25.35 1.95 26.52 1.95ZM26.09 7.20L26.09 7.20L26.95 7.20L26.95 7.05L26.24 7.05L26.24 7.05Q26.22 7.05 26.09 7.20ZM33.23 1.93L33.23 1.93L33.23 1.93Q35.28 1.93 35.81 3.21L35.81 3.21L35.81 3.21Q35.96 3.53 35.96 3.63L35.96 3.63L35.10 3.63L35.10 3.89L36.03 3.89L36.03 3.88L36.03 3.88Q36.03 3.81 35.96 3.63L35.96 3.63L37.54 3.63L37.54 3.89L36.05 3.89L36.05 3.91L36.05 3.91Q36.16 4.46 36.21 5.09L36.21 5.09L36.21 5.09Q36.21 5.13 34.41 5.22L34.41 5.22L34.41 5.21L34.41 5.21Q34.41 3.58 33.29 3.58L33.29 3.58L33.10 3.58L33.10 3.58Q32.26 3.58 32.07 4.29L32.07 4.29L32.07 4.29Q31.92 4.89 31.92 5.87L31.92 5.87L31.92 7.20L31.91 7.40L31.29 7.40L31.29 7.71L31.91 7.71L31.91 10.08L34.55 10.08L34.55 7.62L36.06 7.62L36.06 10.08L35.22 10.08L35.22 11.60L33.46 11.60L33.46 11.73L32.09 11.73L32.09 11.60L30.71 11.60L30.71 10.84L31.63 10.84L31.63 10.51L30.25 10.51L30.25 9.39L29.65 9.39L29.65 8.01L29.97 8.01L29.97 8.01Q29.95 7.15 29.95 6.66L29.95 6.66L29.95 6.66Q29.95 4.42 30.17 3.84L30.17 3.84L30.17 3.84Q30.37 3.17 30.82 2.69L30.82 2.69L30.82 2.69Q31.64 1.93 33.23 1.93ZM32.04 9.59L32.04 9.59L32.12 9.59L32.12 9.93L32.32 9.93L32.32 10.04L32.04 10.04L32.04 10.04Q32.01 10.04 32.01 10.00L32.01 10.00L32.01 9.63L32.01 9.63Q32.01 9.59 32.04 9.59ZM34.10 9.60L34.10 9.59L34.20 9.59L34.20 9.59Q34.28 9.66 34.28 9.72L34.28 9.72L34.28 9.72Q34.30 9.72 34.40 9.59L34.40 9.59L34.48 9.59L34.48 9.63L34.48 9.63Q34.36 9.78 34.36 9.84L34.36 9.84L34.36 9.84Q34.38 9.84 34.49 10.01L34.49 10.01L34.49 10.04L34.40 10.04L34.28 9.91L34.28 9.91Q34.22 10.02 34.19 10.04L34.19 10.04L34.08 10.04L34.08 10.04Q34.12 9.97 34.23 9.80L34.23 9.80L34.10 9.60ZM35.45 10.19L35.45 10.19L35.45 10.19Q35.62 10.23 35.62 10.28L35.62 10.28L35.62 10.35L35.55 10.35L35.49 10.28L35.42 10.28L35.42 10.28Q35.38 10.29 35.38 10.32L35.38 10.32L35.38 10.35L35.38 10.35Q35.64 10.40 35.64 10.46L35.64 10.46L35.64 10.51L35.64 10.51Q35.64 10.64 35.49 10.64L35.49 10.64L35.42 10.64L35.42 10.64Q35.33 10.64 35.27 10.55L35.27 10.55L35.27 10.48L35.37 10.48L35.37 10.48Q35.37 10.56 35.46 10.56L35.46 10.56L35.49 10.56L35.49 10.56Q35.51 10.56 35.53 10.51L35.53 10.51L35.53 10.51Q35.53 10.49 35.30 10.40L35.30 10.40L35.29 10.36L35.29 10.28L35.29 10.28Q35.29 10.23 35.45 10.19ZM36.97 10.60L36.97 1.93L38.90 1.93L38.90 3.77L38.90 3.77Q38.90 4.70 38.86 5.76L38.86 5.76L38.86 5.78L38.88 5.78L38.88 5.78Q39.12 5.33 40.18 3.46L40.18 3.46L40.18 3.46Q40.73 2.51 40.73 2.02L40.73 2.02L40.73 1.93L42.70 1.93L42.70 1.98L42.70 1.98Q42.70 2.92 41.93 4.03L41.93 4.03L40.76 5.74L41.91 8.19L42.95 8.19L42.95 8.48L41.78 8.48L41.78 8.50L41.78 8.50Q42.06 9.11 42.14 9.23L42.14 9.23L42.36 9.23L42.36 10.12L42.66 10.12L42.66 11.72L42.66 11.72Q42.15 11.73 41.91 11.73L41.91 11.73L41.43 11.73L41.43 11.73Q41.18 11.73 40.74 11.72L40.74 11.72L40.74 10.64L40.31 10.64L40.31 9.23L40.07 9.23L39.81 8.48L41.76 8.48L41.76 8.19L39.97 8.19L39.97 8.19Q39.97 8.16 39.66 7.20L39.66 7.20L39.63 7.20L39.63 7.20Q39.47 7.51 38.98 8.19L38.98 8.19L39.81 8.19L39.81 8.48L38.90 8.48L38.90 8.96L38.78 8.96L38.78 11.20L38.90 11.20L38.90 11.70L38.90 11.70Q38.90 11.73 38.86 11.73L38.86 11.73L37.00 11.73L37.00 11.73Q36.97 11.73 36.97 11.70L36.97 11.70L36.97 10.92L37.84 10.92L37.84 10.60L36.97 10.60ZM41.96 7.69L41.96 7.69L42.06 7.69L42.06 7.69Q42.10 7.69 42.16 7.96L42.16 7.96L42.16 7.96Q42.18 7.96 42.26 7.69L42.26 7.69L42.40 7.69L42.40 8.11L42.40 8.11Q42.40 8.14 42.38 8.14L42.38 8.14L42.31 8.14L42.31 7.88L42.29 7.88L42.29 7.88Q42.29 7.90 42.21 8.14L42.21 8.14L42.16 8.14L42.16 8.14Q42.11 8.14 42.06 7.91L42.06 7.91L42.04 7.91L42.04 8.11L42.04 8.11Q42.04 8.14 42.01 8.14L42.01 8.14L41.96 8.14L41.96 8.14Q41.93 8.14 41.93 8.11L41.93 8.11L41.93 7.72L41.93 7.72Q41.93 7.69 41.96 7.69ZM38.96 8.19L37.76 8.19L37.76 8.48L38.88 8.48L38.88 8.48Q38.88 8.43 38.96 8.19L38.96 8.19ZM40.33 10.73L40.33 10.71L40.43 10.71L40.43 10.71Q40.45 10.71 40.53 10.82L40.53 10.82L40.53 10.82Q40.59 10.71 40.61 10.71L40.61 10.71L40.71 10.71L40.71 10.73L40.58 10.92L40.58 10.92Q40.61 10.93 40.73 11.14L40.73 11.14L40.59 11.14L40.53 11.01L40.53 11.01Q40.43 11.14 40.41 11.14L40.41 11.14L40.31 11.14L40.31 11.14Q40.43 10.93 40.46 10.92L40.46 10.92L40.33 10.73Z"></path></g><!----><g data-v-423bf9ae="" id="e7111564-c092-4497-b4f9-c4cf04ab58d4" transform="matrix(1.327418327331543,0,0,1.327418327331543,77.40811920166016,-9.2919282913208)" stroke="none" fill="white"><path d="M12.9 71.4l-5.3-5.3 11.7-11.7 1.4 1.4-10.3 10.3 2.5 2.5 10.3-10.3 1.4 1.4z"></path><path d="M29 61.6c-1.7 0-3.4-.7-4.6-1.9l-5.1-5.1c-2.5-2.5-2.5-6.6 0-9.2l.7-.7L34.3 59l-.7.7a6.42 6.42 0 0 1-4.6 1.9zm-8.9-14c-1.1 1.7-.9 4.1.6 5.6l5.1 5.1c.8.8 2 1.3 3.2 1.3.9 0 1.7-.2 2.4-.7L20.1 47.6zM12.3 74.8c-.8 0-1.5-.3-2-.8l-5.2-5.2c-.5-.5-.8-1.2-.8-2s.3-1.5.8-2c1.1-1.1 2.9-1.1 4 0l5.2 5.2c1.1 1.1 1.1 2.9 0 4-.5.5-1.2.8-2 .8zm-5.2-8.9c-.2 0-.4.1-.6.2-.2.2-.2.4-.2.6s.1.4.2.6l5.2 5.2c.3.3.9.3 1.2 0 .3-.3.3-.8 0-1.2l-5.2-5.2c-.2-.1-.4-.2-.6-.2z"></path><path d="M31.7 58.7l-1.4-1.4L70 17.6V9h-7.6L23.3 49.4 21.9 48 61.6 7H72v11.4z"></path><path d="M64.272 13.31l1.434 1.395-35.98 36.987-1.434-1.395zM13 61h2v7h-2zM17 57h2v7h-2z"></path><g><path d="M68.4 71.4L56.7 59.7l1.4-1.4 10.3 10.3 2.4-2.5-10.3-10.3 1.4-1.4 11.7 11.7z"></path><path d="M52.2 61.6c-1.7 0-3.4-.7-4.6-1.9l-.7-.7 14.3-14.3.7.7c2.5 2.5 2.5 6.6 0 9.2l-5.1 5.1c-1.2 1.2-2.9 1.9-4.6 1.9zm-2.4-2.7c.7.4 1.5.7 2.4.7 1.2 0 2.3-.5 3.2-1.3l5.1-5.1c1.5-1.5 1.7-3.8.6-5.6L49.8 58.9zM68.9 74.8c-.8 0-1.5-.3-2-.8-1.1-1.1-1.1-2.9 0-4l5.2-5.2c1.1-1.1 2.9-1.1 4 0 .5.5.8 1.2.8 2s-.3 1.5-.8 2L70.9 74c-.5.5-1.2.8-2 .8zm5.3-8.9c-.2 0-.4.1-.6.2l-5.2 5.2c-.3.3-.3.8 0 1.2.3.3.9.3 1.2 0l5.2-5.2c.2-.2.2-.4.2-.6s-.1-.4-.2-.6c-.2-.1-.4-.2-.6-.2z"></path><path d="M41.252 47.803l9.49 9.46-1.412 1.417-9.49-9.46zM30.6 39.9L9 18.4V7h10.7l21.4 22.1-1.4 1.4L18.8 9H11v8.6l21 20.9zM50.452 38.794l8.908 9.192-1.437 1.391-8.907-9.191z"></path><path d="M16.951 13.328l19.597 20.14-1.433 1.394-19.597-20.14zM46.04 43.152l6.974 7.167-1.433 1.395-6.974-7.167zM66 61h2v7h-2zM62 57h2v7h-2z"></path></g></g><!----></svg>