<svg data-v-fde0c5aa="" xmlns="http://www.w3.org/2000/svg" viewBox="0 0 300 300" class="icon"><!----><defs data-v-fde0c5aa=""><!----></defs><rect data-v-fde0c5aa="" fill="transparent" x="0" y="0" width="300px" height="300px" class="logo-background-square"></rect><!----><defs data-v-fde0c5aa=""><linearGradient data-v-fde0c5aa="" gradientTransform="rotate(25)" id="00ff5fc8-7c5c-4085-946c-92d8ec14874e" x1="0%" y1="0%" x2="100%" y2="0%"><stop data-v-fde0c5aa="" offset="0%" stop-color="#420F14" stop-opacity="1"></stop><stop data-v-fde0c5aa="" offset="100%" stop-color="#C5545E" stop-opacity="1"></stop></linearGradient></defs><g data-v-fde0c5aa="" id="0f28da69-6bf2-4bc3-abcb-54cf7e2a3a38" fill="url(#00ff5fc8-7c5c-4085-946c-92d8ec14874e)" stroke="none" transform="matrix(3.0304007530212402,0,0,3.0304007530212402,26.966908797417272,26.055421038471884)"><path d="M12.9 71.4l-5.3-5.3 11.7-11.7 1.4 1.4-10.3 10.3 2.5 2.5 10.3-10.3 1.4 1.4z"></path><path d="M29 61.6c-1.7 0-3.4-.7-4.6-1.9l-5.1-5.1c-2.5-2.5-2.5-6.6 0-9.2l.7-.7L34.3 59l-.7.7a6.42 6.42 0 0 1-4.6 1.9zm-8.9-14c-1.1 1.7-.9 4.1.6 5.6l5.1 5.1c.8.8 2 1.3 3.2 1.3.9 0 1.7-.2 2.4-.7L20.1 47.6zM12.3 74.8c-.8 0-1.5-.3-2-.8l-5.2-5.2c-.5-.5-.8-1.2-.8-2s.3-1.5.8-2c1.1-1.1 2.9-1.1 4 0l5.2 5.2c1.1 1.1 1.1 2.9 0 4-.5.5-1.2.8-2 .8zm-5.2-8.9c-.2 0-.4.1-.6.2-.2.2-.2.4-.2.6s.1.4.2.6l5.2 5.2c.3.3.9.3 1.2 0 .3-.3.3-.8 0-1.2l-5.2-5.2c-.2-.1-.4-.2-.6-.2z"></path><path d="M31.7 58.7l-1.4-1.4L70 17.6V9h-7.6L23.3 49.4 21.9 48 61.6 7H72v11.4z"></path><path d="M64.272 13.31l1.434 1.395-35.98 36.987-1.434-1.395zM13 61h2v7h-2zM17 57h2v7h-2z"></path><g><path d="M68.4 71.4L56.7 59.7l1.4-1.4 10.3 10.3 2.4-2.5-10.3-10.3 1.4-1.4 11.7 11.7z"></path><path d="M52.2 61.6c-1.7 0-3.4-.7-4.6-1.9l-.7-.7 14.3-14.3.7.7c2.5 2.5 2.5 6.6 0 9.2l-5.1 5.1c-1.2 1.2-2.9 1.9-4.6 1.9zm-2.4-2.7c.7.4 1.5.7 2.4.7 1.2 0 2.3-.5 3.2-1.3l5.1-5.1c1.5-1.5 1.7-3.8.6-5.6L49.8 58.9zM68.9 74.8c-.8 0-1.5-.3-2-.8-1.1-1.1-1.1-2.9 0-4l5.2-5.2c1.1-1.1 2.9-1.1 4 0 .5.5.8 1.2.8 2s-.3 1.5-.8 2L70.9 74c-.5.5-1.2.8-2 .8zm5.3-8.9c-.2 0-.4.1-.6.2l-5.2 5.2c-.3.3-.3.8 0 1.2.3.3.9.3 1.2 0l5.2-5.2c.2-.2.2-.4.2-.6s-.1-.4-.2-.6c-.2-.1-.4-.2-.6-.2z"></path><path d="M41.252 47.803l9.49 9.46-1.412 1.417-9.49-9.46zM30.6 39.9L9 18.4V7h10.7l21.4 22.1-1.4 1.4L18.8 9H11v8.6l21 20.9zM50.452 38.794l8.908 9.192-1.437 1.391-8.907-9.191z"></path><path d="M16.951 13.328l19.597 20.14-1.433 1.394-19.597-20.14zM46.04 43.152l6.974 7.167-1.433 1.395-6.974-7.167zM66 61h2v7h-2zM62 57h2v7h-2z"></path></g></g><!----></svg>