<?xml version="1.0" standalone="no"?>
<!DOCTYPE svg PUBLIC "-//W3C//DTD SVG 20010904//EN"
 "http://www.w3.org/TR/2001/REC-SVG-20010904/DTD/svg10.dtd">
<svg version="1.0" xmlns="http://www.w3.org/2000/svg"
 width="393.000000pt" height="393.000000pt" viewBox="0 0 393.000000 393.000000"
 preserveAspectRatio="xMidYMid meet">
<metadata>
Created by potrace 1.16, written by Peter Selinger 2001-2019
</metadata>
<g transform="translate(0.000000,393.000000) scale(0.100000,-0.100000)"
fill="#000000" stroke="none">
<path d="M1460 2631 c-102 -34 -180 -93 -180 -135 0 -35 15 -33 99 15 41 24
89 43 114 46 42 5 45 3 166 -95 68 -55 139 -108 157 -118 l34 -19 32 32 c25
25 31 40 32 75 1 41 0 43 -50 69 -29 14 -71 42 -95 61 -72 58 -105 70 -199 74
-47 2 -96 0 -110 -5z"/>
<path d="M2300 2634 c-41 -16 -97 -48 -143 -83 -29 -22 -69 -46 -89 -54 -61
-26 -60 -96 4 -154 18 -16 21 -16 64 7 24 14 95 67 157 118 109 92 113 94 154
89 25 -3 73 -22 115 -46 79 -46 104 -49 101 -11 -4 31 -50 71 -122 106 -45 22
-73 28 -141 30 -47 2 -92 1 -100 -2z"/>
<path d="M1572 2319 c-73 -14 -132 -68 -132 -121 0 -21 -9 -34 -35 -50 -58
-38 -60 -72 -2 -45 19 9 65 22 103 28 59 10 77 10 125 -4 30 -9 72 -28 93 -42
20 -14 41 -25 46 -25 16 0 11 16 -10 35 -27 25 -25 40 10 65 17 12 30 25 30
29 0 18 -61 97 -87 112 -37 21 -88 28 -141 18z"/>
<path d="M2222 2299 c-18 -12 -44 -42 -59 -66 l-26 -46 31 -26 c37 -30 39 -41
12 -66 -21 -19 -26 -35 -10 -35 5 0 30 13 56 30 68 43 141 57 216 41 33 -7 75
-19 94 -28 51 -25 54 -6 7 36 -29 25 -43 45 -43 62 0 33 -24 65 -71 94 -52 34
-157 35 -207 4z"/>
<path d="M1298 1985 c-55 -41 -109 -113 -133 -177 -36 -97 0 -233 77 -288 80
-58 247 -74 442 -44 101 16 104 16 144 -5 59 -30 231 -31 280 -1 35 21 78 26
102 10 16 -10 1 -18 -96 -46 -72 -21 -255 -15 -324 11 -34 13 -61 15 -117 9
-40 -3 -73 -10 -73 -14 0 -5 23 -33 51 -64 132 -145 339 -176 535 -82 70 34
132 84 153 123 16 31 15 33 -26 33 -21 0 -43 4 -50 8 -6 4 37 6 96 4 104 -4
205 6 284 29 28 7 47 23 70 55 72 102 89 208 50 296 -23 51 -99 132 -150 161
l-32 18 21 -47 c76 -174 -54 -288 -234 -205 -143 65 -175 76 -219 76 -42 0
-52 -5 -97 -47 -80 -75 -128 -74 -180 4 -35 53 -80 54 -201 6 -126 -50 -182
-68 -215 -68 -49 1 -115 35 -127 67 -12 30 -5 148 9 167 14 18 22 46 13 46 -4
0 -28 -16 -53 -35z"/>
</g>
</svg>
